<svg version="1.0" xmlns="http://www.w3.org/2000/svg" width="473.333" height="441.333" viewBox="0 0 355 331"><g fill="#84a278"><path d="M236.5 69.6c-44.5 25-90.6 50.8-102.3 57.4l-21.4 11.9-4.8-3.8c-6.3-5-10.6-5.8-16.5-3.2-6.2 2.7-8.7 7-8.2 14.1.2 3 .6 6.2 1 7 .5 1.1-.3 2.1-3 3.5-5.6 3-17.5 15.2-22.5 23C50.1 193 46 207 46 223c0 15.9 4.1 30 12.6 43.2L63 273h-2.7c-5 0-11 3.8-13.2 8.4-2.6 5.3-2.6 7.9 0 13.2 1.5 3.1 3.2 4.8 6.3 6.3 4.2 2.1 5.2 2.1 111.6 2.1 106.4 0 107.4 0 111.6-2.1 4.5-2.1 8.4-8.1 8.4-12.9 0-4.8-3.9-10.8-8.4-12.9-4.1-2-5.9-2.1-46.5-2.1h-42.2l3.3-4.6c2.6-3.6 3.6-4.4 5.3-3.8 1.1.3 4 .8 6.5 1.1 7.8.7 15-5.9 15-13.9 0-4.8-1.2-7.6-4.9-11.6-1.7-1.8-3.1-3.7-3.1-4.2 0-.4 2-4.3 4.4-8.6 18.4-33 81-145.1 86-153.9 22.8-40.1 24.9-44.5 23.8-47-.9-1.8-1.9-2.5-3.9-2.4-1.7.1-34.9 18.1-83.8 45.5zm68.1-23.4c-4 7-37.2 66.3-65.6 117.3-4 7.1-7.5 13.2-7.7 13.5-.3.3-.9-.3-1.4-1.3-1.2-2.1-3.5-2.2-8.3-.2-2 .8-3.6 1.2-3.6.8 0-.5 2.2-6.2 5-12.8l5.1-12 8.7-3.5c8.2-3.3 8.7-3.7 9-6.7.4-4.3-2.4-5.9-7.4-4.3-2 .7-3.7 1-3.9.8-.2-.1 2.3-6.4 5.4-13.8 4.2-9.8 6.4-13.8 8.2-14.8 1.3-.7 5.9-2.8 10.2-4.7 7.8-3.4 9.8-5.5 8-8.3-2.1-3.3-3.9-3.6-9.2-1.4-2.8 1.1-5.1 1.9-5.1 1.7 0-.2.9-2.6 1.9-5.3 1.8-4.5 1.8-5.1.4-7.1-1-1.5-2.3-2.1-4.1-1.9-2.2.2-3.2 1.4-5.4 6.3-7 15.3-5.8 14.1-20.8 20.5-7.4 3.2-13.6 5.6-13.8 5.5-.1-.1.2-1.4.8-2.9 1.6-4.3 1.2-7.4-1.1-8.7-3.8-2-6.1.2-9.6 9.3l-3.3 8.3-12.2 5.3c-6.7 2.8-12.4 5-12.6 4.7-.3-.2.3-2.2 1.1-4.3 1.3-3.3 1.4-4.3.2-6.5-1.6-3.1-4.2-1.3 26.5-18.5 11.8-6.6 40.4-22.6 63.5-35.6 23.1-12.9 42.4-23.5 42.8-23.6.4 0-.3 1.9-1.7 4.2zM226.3 131l-5.8 13.2-13.2 5.3c-7.3 2.9-13.3 5-13.3 4.7 0-.4 2.4-6.5 5.3-13.7l5.3-12.9 13.5-5.7c7.4-3.1 13.5-5.3 13.7-4.9.2.4-2.3 6.7-5.5 14zm-63.4-4.8c-1.2 2.9-2.6 6.5-3.1 8-.8 2.2-2.7 3.4-9.9 6.4-9.6 4-12.2 6.3-11 9.7 1.2 3.2 4.3 3.8 9.1 1.6 2.4-1.1 4.5-1.8 4.7-1.5.2.2-.3 2.1-1.1 4.1-2.2 5.2-2 8.2.5 9.6 4 2.1 6.2-.1 10.2-10.3l3.8-9.5 12-5.2c6.6-2.9 12.3-5 12.6-4.8.6.7-8.6 23.9-10.1 25.3-.6.6-4.7 2.5-9.1 4.3-9.4 3.9-10.5 4.6-10.5 7.5 0 4.6 3.9 5.8 10.3 3.1 2-.8 3.8-1.5 4.1-1.5.2 0-.5 2.3-1.5 5-2.3 6.2-1.4 9 3.1 9 3.4 0 3.5-.1 8.1-11l3.5-8.4 12.9-5.3c7-2.9 13-5.2 13.1-5 .2.2-2 5.9-4.9 12.7l-5.2 12.3-10 4.1c-9.5 3.9-10 4.3-10.3 7.3-.5 4.7 2.6 6 8.5 3.8 2.4-.9 4.6-1.5 4.9-1.3.2.3-.3 2.5-1.3 5-2.4 6.5-.4 9.8 5 8.4 1.8-.4 3.2-2.7 6.2-10l4-9.6 7.4-3c4.1-1.6 7.6-2.8 7.8-2.6.2.2-5.2 10.3-12 22.4l-12.3 22-12.9-12.4c-7.1-6.8-13.5-12.4-14.3-12.4-2.1 0-5.2 3-5.2 4.9 0 .9 8.6 10.2 19 20.6 19.4 19.4 21.2 21.9 17.8 25.3-3.7 3.7-4.6 2.9-60.6-53.1-33.5-33.6-54.2-55-54.2-56.1 0-2.6 2.9-5.6 5.3-5.6 1.3 0 7.8 5.7 17.7 15.5 15.3 15.2 18 17.1 20.8 14.3 2.8-2.8 1.2-5.8-7.3-14.5-4.7-4.8-8.2-9-7.8-9.4.7-.7 43.5-24.8 44-24.9.2 0-.7 2.4-1.8 5.2zM140 209.1c25.8 25.8 47 47.2 47 47.5 0 1.3-8.2 12.2-11.4 15.3-4.1 4-4.8 8.4-1.7 10.1 1.3.6 18.8 1 50 1 42.3 0 48.1.2 49.5 1.6 1.9 1.8 2.1 5.5.4 7.2-.9.9-26.5 1.2-109 1.2C59.3 293 57 293 56 291.1c-3.1-5.8-.1-8.1 10.6-8.1 4.7 0 9.4-.5 10.5-1 3.4-1.9 2.3-5.7-3.3-12-28.1-31.1-23.2-78.8 10.5-103.7 3.3-2.4 6.5-4.3 7.3-4.3.8 0 22.5 21.2 48.4 47.1z"/><path d="M143.2 177.2c-2.7 2.7-1.1 5.5 7.7 14.1 4.9 4.8 9.4 8.7 10 8.7 1.6 0 5.1-3.8 5.1-5.6 0-.8-3.9-5.3-8.6-10-8.5-8.4-11.5-9.9-14.2-7.2zM66.7 214.7c-4.4 4.9-.7 8.3 9.1 8.3 4.6 0 7.4.4 7.9 1.2.4.7 1 7.5 1.3 15 .5 14.8 1.2 16.6 7.4 21.2 3.8 2.9 11.4 2.9 15.2 0 5.7-4.2 6.9-6.9 7.3-16.2.1-4.8.8-9.3 1.3-10 .7-.7 3.7-1.2 8.3-1.2 5.7 0 7.5-.4 8.8-1.8 2.2-2.4 2.1-4.5-.2-6.7-2.9-2.5-16.8-1.9-20.7 1.1-5.6 4.1-6.8 6.8-7.4 16.4-.5 9.2-1.3 10.9-5.1 11-4.1 0-4.8-1.9-5.1-16.2-.3-14.8-.9-16.5-7.2-21.2-4.1-3.1-18.3-3.6-20.9-.9zM146.7 244.8c-1.4 1.5-1.7 4.1-1.7 13.5 0 9.2-.3 11.9-1.6 13.1-1.8 1.9-3.8 2-6.5.6-1.6-.9-1.9-2.2-1.9-8.4 0-5.8-.4-7.6-1.8-8.9-2.4-2.2-4.5-2.1-6.7.2-1.4 1.7-1.7 3.4-1.4 10 .4 8.5 1.8 11.4 7.3 15.5 3.8 2.9 11.4 2.9 15.2 0 6.2-4.6 6.9-6.4 7.2-20.6.3-11.2.1-13.2-1.4-14.9-2.2-2.4-4.6-2.4-6.7-.1z"/></g></svg>