<svg version="1.0" xmlns="http://www.w3.org/2000/svg"
 width="355.000000pt" height="331.000000pt" viewBox="0 0 355.000000 331.000000"
 preserveAspectRatio="xMidYMid meet">

<g transform="translate(0.000000,331.000000) scale(0.100000,-0.100000)"
fill="#84a278" stroke="none">
<path d="M2365 2614 c-445 -250 -906 -508 -1023 -574 l-214 -119 -48 38 c-63
50 -106 58 -165 32 -62 -27 -87 -70 -82 -141 2 -30 6 -62 10 -70 5 -11 -3 -21
-30 -35 -56 -30 -175 -152 -225 -230 -87 -135 -128 -275 -128 -435 0 -159 41
-300 126 -432 l44 -68 -27 0 c-50 0 -110 -38 -132 -84 -26 -53 -26 -79 0 -132
15 -31 32 -48 63 -63 42 -21 52 -21 1116 -21 1064 0 1074 0 1116 21 45 21 84
81 84 129 0 48 -39 108 -84 129 -41 20 -59 21 -465 21 l-422 0 33 46 c26 36
36 44 53 38 11 -3 40 -8 65 -11 78 -7 150 59 150 139 0 48 -12 76 -49 116 -17
18 -31 37 -31 42 0 4 20 43 44 86 184 330 810 1451 860 1539 228 401 249 445
238 470 -9 18 -19 25 -39 24 -17 -1 -349 -181 -838 -455z m681 234 c-40 -70
-372 -663 -656 -1173 -40 -71 -75 -132 -77 -135 -3 -3 -9 3 -14 13 -12 21 -35
22 -83 2 -20 -8 -36 -12 -36 -8 0 5 22 62 50 128 l51 120 87 35 c82 33 87 37
90 67 4 43 -24 59 -74 43 -20 -7 -37 -10 -39 -8 -2 1 23 64 54 138 42 98 64
138 82 148 13 7 59 28 102 47 78 34 98 55 80 83 -21 33 -39 36 -92 14 -28 -11
-51 -19 -51 -17 0 2 9 26 19 53 18 45 18 51 4 71 -10 15 -23 21 -41 19 -22 -2
-32 -14 -54 -63 -70 -153 -58 -141 -208 -205 -74 -32 -136 -56 -138 -55 -1 1
2 14 8 29 16 43 12 74 -11 87 -38 20 -61 -2 -96 -93 l-33 -83 -122 -53 c-67
-28 -124 -50 -126 -47 -3 2 3 22 11 43 13 33 14 43 2 65 -16 31 -42 13 265
185 118 66 404 226 635 356 231 129 424 235 428 236 4 0 -3 -19 -17 -42z
m-783 -848 l-58 -132 -132 -53 c-73 -29 -133 -50 -133 -47 0 4 24 65 53 137
l53 129 135 57 c74 31 135 53 137 49 2 -4 -23 -67 -55 -140z m-634 48 c-12
-29 -26 -65 -31 -80 -8 -22 -27 -34 -99 -64 -96 -40 -122 -63 -110 -97 12 -32
43 -38 91 -16 24 11 45 18 47 15 2 -2 -3 -21 -11 -41 -22 -52 -20 -82 5 -96
40 -21 62 1 102 103 l38 95 120 52 c66 29 123 50 126 48 6 -7 -86 -239 -101
-253 -6 -6 -47 -25 -91 -43 -94 -39 -105 -46 -105 -75 0 -46 39 -58 103 -31
20 8 38 15 41 15 2 0 -5 -23 -15 -50 -23 -62 -14 -90 31 -90 34 0 35 1 81 110
l35 84 129 53 c70 29 130 52 131 50 2 -2 -20 -59 -49 -127 l-52 -123 -100 -41
c-95 -39 -100 -43 -103 -73 -5 -47 26 -60 85 -38 24 9 46 15 49 13 2 -3 -3
-25 -13 -50 -24 -65 -4 -98 50 -84 18 4 32 27 62 100 l40 96 74 30 c41 16 76
28 78 26 2 -2 -52 -103 -120 -224 l-123 -220 -129 124 c-71 68 -135 124 -143
124 -21 0 -52 -30 -52 -49 0 -9 86 -102 190 -206 194 -194 212 -219 178 -253
-37 -37 -46 -29 -606 531 -335 336 -542 550 -542 561 0 26 29 56 53 56 13 0
78 -57 177 -155 153 -152 180 -171 208 -143 28 28 12 58 -73 145 -47 48 -82
90 -78 94 7 7 435 248 440 249 2 0 -7 -24 -18 -52z m-229 -829 c258 -258 470
-472 470 -475 0 -13 -82 -122 -114 -153 -41 -40 -48 -84 -17 -101 13 -6 188
-10 500 -10 423 0 481 -2 495 -16 19 -18 21 -55 4 -72 -9 -9 -265 -12 -1090
-12 -1055 0 -1078 0 -1088 19 -31 58 -1 81 106 81 47 0 94 5 105 10 34 19 23
57 -33 120 -281 311 -232 788 105 1037 33 24 65 43 73 43 8 0 225 -212 484
-471z"/>
<path d="M1432 1538 c-27 -27 -11 -55 77 -141 49 -48 94 -87 100 -87 16 0 51
38 51 56 0 8 -39 53 -86 100 -85 84 -115 99 -142 72z"/>
<path d="M667 1163 c-44 -49 -7 -83 91 -83 46 0 74 -4 79 -12 4 -7 10 -75 13
-150 5 -148 12 -166 74 -212 38 -29 114 -29 152 0 57 42 69 69 73 162 1 48 8
93 13 100 7 7 37 12 83 12 57 0 75 4 88 18 22 24 21 45 -2 67 -29 25 -168 19
-207 -11 -56 -41 -68 -68 -74 -164 -5 -92 -13 -109 -51 -110 -41 0 -48 19 -51
162 -3 148 -9 165 -72 212 -41 31 -183 36 -209 9z"/>
<path d="M1467 862 c-14 -15 -17 -41 -17 -135 0 -92 -3 -119 -16 -131 -18 -19
-38 -20 -65 -6 -16 9 -19 22 -19 84 0 58 -4 76 -18 89 -24 22 -45 21 -67 -2
-14 -17 -17 -34 -14 -100 4 -85 18 -114 73 -155 38 -29 114 -29 152 0 62 46
69 64 72 206 3 112 1 132 -14 149 -22 24 -46 24 -67 1z"/>
</g>
</svg>